<?xml version="1.0" standalone="yes"?>
<svg xmlns="http://www.w3.org/2000/svg" width="229" height="230">
<path style="fill:#fffcff; stroke:none;" d="M0 0L0 230L4 230C0.304568 224.398 1 218.474 1 212L1 180L1 54L1 17C1 11.4068 -0.0556912 5.32832 4 1C2.49396 0.316971 1.6852 0.174103 0 0z"/>
<path style="fill:#ff92b9; stroke:none;" d="M4 0L5 1L4 0z"/>
<path style="fill:#e0507c; stroke:none;" d="M5 0L6 1L5 0z"/>
<path style="fill:#bc053d; stroke:none;" d="M1 6C2.4566 7.10339 2.8966 7.5434 4 9C5.01546 7.86063 5.30864 7.38847 6 6C11.239 9.25615 8.03504 14.6703 8.00077 20C7.91719 32.9988 8 46.0009 8 59L8 223L10 223L10 82L10 36C10 28.4489 9.16518 20.4738 10 13C12.1139 20.1516 11 28.5732 11 36L11 80L11 223C13.4972 217.049 12 208.42 12 202L12 157L12 0C6.76084 0.123184 3.21095 0.946228 1 6z"/>
<path style="fill:#b8073d; stroke:none;" d="M12 0C12 5.58702 10.2781 12.5332 17 14C13.9541 21.1883 15 29.3233 15 37L15 80L19 80C19.2267 84.1995 21.6898 87.9084 21.7384 92C21.7933 96.6093 20.0037 101.226 20 106C16.7369 103.448 16.1217 101.066 16 97L19 97C18.9961 91.9553 19.0765 88.3955 15 85L15 112L18 112C18 120.57 16.0065 128.567 16 137C18.59 134.237 18.9106 131.732 19 128C25.176 131.439 22.4234 141.015 18 145C18.5165 147.625 20.3931 154.151 16 153C13.4009 159.194 15 168.314 15 175C15 191.577 12.9702 209.68 16 226C13.7026 225.326 13.2259 225.035 12 223C11.2211 224.769 11.0876 226.036 11 228L7 227C8.01297 231.727 15.0145 230 19 230L56 230L184 230L215 230C219.199 230 224.496 230.856 227.694 227.389C230.576 224.265 229 216.009 229 212L229 170L229 2C218.052 -0.440109 207.273 0 196 0L153 0L12 0z"/>
<path style="fill:#d16283; stroke:none;" d="M225 0L226 1L225 0z"/>
<path style="fill:#ffa7c4; stroke:none;" d="M226 0L227 1L226 0z"/>
<path style="fill:#fff5ff; stroke:none;" d="M227 0C227.545 1.63518 227.365 1.45496 229 2L229 0L227 0z"/>
<path style="fill:#ffb9cd; stroke:none;" d="M2 1L3 2L2 1z"/>
<path style="fill:#c95576; stroke:none;" d="M3 1L4 2L3 1z"/>
<path style="fill:#86092e; stroke:none;" d="M225.667 1.33333C225.222 1.7778 226.278 1.7222 226.333 1.66667C226.778 1.22217 225.722 1.27779 225.667 1.33333z"/>
<path style="fill:#c95978; stroke:none;" d="M227 1L228 2L227 1z"/>
<path style="fill:#e6a2b3; stroke:none;" d="M1 3L2 4L1 3z"/>
<path style="fill:#ba5973; stroke:none;" d="M1 4L2 5L1 4z"/>
<path style="fill:#780825; stroke:none;" d="M1 6L1 225C3.18893 219.784 2 212.619 2 207L2 169L2 60L2 27C2 20.03 1.37705 12.8169 3 6L1 6z"/>
<path style="fill:#b30d40; stroke:none;" d="M6 6C3.32498 11.6891 5.99723 17.8349 6 24L6 68L6 224C8.94546 220.112 8 214.716 8 210L8 178L8 55C8 43.0251 7.58301 30.9664 8.01852 19C8.20351 13.917 12.0566 8.43689 6 6z"/>
<path style="fill:#ab103f; stroke:none;" d="M2 7L2 166L2 205C2 214.15 0.985772 222.029 6 230C6.91543 226.083 3.36423 223.025 3.05478 218.985C2.24777 208.449 3 197.569 3 187L3 68L3 27C3 20.846 4.39487 12.7073 2 7z"/>
<path style="fill:#bd043d; stroke:none;" d="M3 7L3 176L3 213C3 220.176 2.68981 226.31 11 228L11 13C8.20838 17.0072 10 24.1385 10 29L10 69L10 223L6 224L6 73L6 33C6 24.1794 6.78057 15.2067 3 7z"/>
<path style="fill:#b6083d; stroke:none;" d="M12 13L12 226L16 226C12.9853 202.145 15 177.049 15 153C20.6965 155.974 18.8883 148.201 18 145C22.83 142.037 25.5789 130.185 19 128C18.833 131.252 18.1141 133.946 17 137C15.6288 132.31 17.3196 129.486 17.8711 124.91C18.3795 120.692 18 116.245 18 112L15 112L15 85C18.336 88.9447 18.9821 91.9219 19 97L16 97C16.046 101.091 16.1433 103.978 20 106C20.0165 101.187 21.9138 96.6908 21.8912 92C21.8712 87.8425 19.4463 84.1387 19 80L15 80L15 40C15 31.1405 14.3412 22.5211 17 14L12 13z"/>
<path style="fill:#a51232; stroke:none;" d="M103 36C102.19 38.729 102.021 41.1505 102 44C95.9461 43.2349 90.1065 43 84 43C89.2917 45.2205 98.183 45.9358 104 46C104.01 42.5448 104.198 39.3679 105 36L103 36z"/>
<path style="fill:#711f26; stroke:none;" d="M104 46L98 46C100.332 46.9845 102.457 46.9813 105 47C105.025 39.8356 106.52 37.0884 114 37C105.845 33.5791 104.005 39.0361 104 46z"/>
<path style="fill:#8d182b; stroke:none;" d="M114 36C115.969 37.0628 117.798 37.5321 120 38C118.266 35.9966 116.645 36.077 114 36z"/>
<path style="fill:#55251b; stroke:none;" d="M105 47C107.372 41.4141 106.765 38.2356 114 38C106.194 34.7326 105.005 40.6425 105 47z"/>
<path style="fill:#682023; stroke:none;" d="M114 37C117.241 39.3986 118.681 40.8609 119 45C120.996 40.205 118.898 37.5638 114 37z"/>
<path style="fill:#243a00; stroke:none;" d="M64 52L64 54C71.243 53.669 77.9342 50.4623 85 49C81.6695 51.2543 77.9174 52.3285 76 56C81.1168 55.8841 84.9295 51.485 90 50.3904C96.6588 48.953 102.609 51.9136 109 53C109 48.2699 109.347 43.5581 108 39C119.95 39.8195 113.909 48.8993 112 56C120.91 51.7966 128.065 47.5881 137.996 52.6836C142.029 54.7528 144.764 58.2883 149 60C146.438 55.6793 143.601 52.1477 139 50C145.192 49.8592 150.904 54.4779 157 53C150.742 45.1046 138.242 45.6785 129.015 46.0185C126.792 46.1004 124.04 47.3504 121.889 46.9414C116.601 45.9356 119.265 38.515 112.981 38.0633C111.033 37.9232 108.371 37.9334 107.027 39.6034C105.127 41.9632 106.522 45.9924 102.852 47.0486C100.645 47.6838 98.1795 46.4997 96 46.2083C91.8333 45.6513 87.1885 45.7832 83 46.0903C75.9191 46.6093 70.6312 50.6951 64 52z"/>
<path style="fill:#9e1931; stroke:none;" d="M120 38L120 46L124 46C122.752 45.3152 122.452 45.2512 121 45C120.981 42.4567 120.985 40.3315 120 38z"/>
<path style="fill:#154d00; stroke:none;" d="M108 39C110.057 40.5819 111.388 40.8256 114 41L114 39L108 39z"/>
<path style="fill:#4a321b; stroke:none;" d="M118 39C118.021 41.8495 118.19 44.271 119 47C119.668 44.213 119.172 41.6132 118 39z"/>
<path style="fill:#4a6609; stroke:none;" d="M109 41C109 45.69 107.763 51.2618 113 53L112 50C116.217 49.0964 115 44.644 115 41L111 43L114 46L110 46C109.912 44.0359 109.779 42.769 109 41z"/>
<path style="fill:#3f7309; stroke:none;" d="M110 41L110 46L114 46C113.02 44.2167 113.092 44.4057 111 44C112.742 42.8887 113.119 42.7295 114 41L110 41z"/>
<path style="fill:#314c00; stroke:none;" d="M115 41L115 50C116.256 47.0059 116.256 43.9941 115 41z"/>
<path style="fill:#a11432; stroke:none;" d="M128 43C131.163 44.3274 134.586 43.9996 138 44C134.837 42.6726 131.414 43.0004 128 43z"/>
<path style="fill:#a11633; stroke:none;" d="M72 46C74.6045 46.7285 76.4503 45.9215 79 45C76.3181 44.1116 74.597 44.9057 72 46z"/>
<path style="fill:#7f1d25; stroke:none;" d="M77 45C82.3564 46.6475 90.2406 45 96 45C90.6275 42.7456 82.5834 43.6707 77 45z"/>
<path style="fill:#9b1528; stroke:none;" d="M124 44C125.506 44.683 126.315 44.8259 128 45C126.494 44.317 125.685 44.1741 124 44z"/>
<path style="fill:#7b1e24; stroke:none;" d="M128 44C132.724 45.9822 138.91 45 144 45C139.276 43.0178 133.09 44 128 44z"/>
<path style="fill:#512611; stroke:none;" d="M80 45C84.9741 47.0872 91.638 46 97 46C92.0259 43.9128 85.3619 45 80 45z"/>
<path style="fill:#532510; stroke:none;" d="M124 45C129.715 47.398 137.831 46 144 46C138.285 43.602 130.169 45 124 45z"/>
<path style="fill:#98182e; stroke:none;" d="M144 45C145.506 45.683 146.315 45.8259 148 46C146.494 45.317 145.685 45.1741 144 45z"/>
<path style="fill:#542c20; stroke:none;" d="M74 47C76.0799 47.5069 77.8377 47.2369 80 47C77.6774 46.0785 76.4195 46.3127 74 47z"/>
<path style="fill:#7b1d26; stroke:none;" d="M120 46C121.506 46.683 122.315 46.8259 124 47C122.494 46.317 121.685 46.1741 120 46z"/>
<path style="fill:#6d2526; stroke:none;" d="M144 46C146.603 47.5612 148.978 47.8621 152 48C149.412 46.6223 146.92 46.2387 144 46z"/>
<path style="fill:#792125; stroke:none;" d="M72.6667 47.3333C72.2222 47.7778 73.2778 47.7222 73.3333 47.6667C73.7778 47.2222 72.7222 47.2778 72.6667 47.3333z"/>
<path style="fill:#4d2014; stroke:none;" d="M100 47C101.506 47.683 102.315 47.8259 104 48C102.494 47.317 101.685 47.1741 100 47z"/>
<path style="fill:#542017; stroke:none;" d="M120 47C121.506 47.683 122.315 47.8259 124 48C122.494 47.317 121.685 47.1741 120 47z"/>
<path style="fill:#7a1e24; stroke:none;" d="M67 49C68.9433 49.6218 69.949 49.4358 72 49C69.9558 48.2256 69.1554 48.4078 67 49z"/>
<path style="fill:#6e231d; stroke:none;" d="M152.667 48.3333C152.222 48.7778 153.278 48.7222 153.333 48.6667C153.778 48.2222 152.722 48.2778 152.667 48.3333z"/>
<path style="fill:#3b5f13; stroke:none;" d="M82 51C83.58 50.3164 83.7772 50.1952 85 49C82.9076 49.4057 82.9803 49.2166 82 51z"/>
<path style="fill:#3f5917; stroke:none;" d="M139 49C141.549 51.5377 143.423 52.414 147 52C144.451 50.3154 142.007 49.5186 139 49z"/>
<path style="fill:#512910; stroke:none;" d="M154 49C155.098 51.1212 155.811 52.6371 156 55L163 56C160.947 52.1655 158.126 50.2486 154 49z"/>
<path style="fill:#ab0f3a; stroke:none;" d="M48 50C49.1274 53.7414 52.211 55.6478 54 59C57.6912 56.8897 61.6138 53.5211 64 50L58 50L58 54L48 50z"/>
<path style="fill:#761f1f; stroke:none;" d="M64 52L67 51C65.2218 50.0446 64.9786 50.2338 64 52z"/>
<path style="fill:#492c04; stroke:none;" d="M65 51C66.9433 51.6218 67.949 51.4358 70 51C68.0568 50.3782 67.0509 50.5642 65 51z"/>
<path style="fill:#537313; stroke:none;" d="M75 51C75.6613 52.3963 75.9644 52.8137 77 54C78.731 52.994 80.053 52.4535 82 52L82 50L75 51z"/>
<path style="fill:#4b790c; stroke:none;" d="M83 53C87.6594 56.3934 95.4164 53.4646 100.985 53.6481C104.14 53.7521 106.879 55.5595 110 56C103.531 48.4789 91.193 48.4107 83 53z"/>
<path style="fill:#2e6e0b; stroke:none;" d="M112 52C113.58 51.3164 113.777 51.1952 115 50C112.908 50.4057 112.98 50.2167 112 52z"/>
<path style="fill:#375701; stroke:none;" d="M123 50C125.89 51.2129 128.874 50.9983 132 51C129.11 49.7871 126.126 50.0017 123 50z"/>
<path style="fill:#477b00; stroke:none;" d="M114 55C117.897 57.956 123.199 56.9305 127.576 59.2091C131.36 61.179 135.675 63.401 138.907 66.1844C142.089 68.9249 143.924 72.659 148 74C147.634 69.291 145.198 68.4118 142.559 64.8711C140.645 62.3031 140.43 58.8332 138.297 56.419C131.715 48.9689 121.427 51.318 114 55z"/>
<path style="fill:#496d03; stroke:none;" d="M128 51C130.644 53.1752 134.111 53.5707 136.775 55.7029C139.803 58.1261 139.952 61.815 141.934 64.8711C143.298 66.9751 145.684 68.1268 146.977 70.2593C149.73 74.7995 149.108 79.6401 154 83C154 66.3211 146.723 51.0517 128 51z"/>
<path style="fill:#7c1526; stroke:none;" d="M58 56C60.3051 55.3328 61.9652 54.2974 64 53C61.039 52.3772 59.873 53.7331 58 56z"/>
<path style="fill:#695c24; stroke:none;" d="M69 53C71.6127 54.0977 74.1645 53.9928 77 54C74.2744 52.2156 72.1762 52.4822 69 53z"/>
<path style="fill:#28490d; stroke:none;" d="M108 53C108.942 55.2878 109.563 55.6583 107 56C109.613 57.0977 112.165 56.9928 115 57C112.694 54.8158 111.223 53.1216 108 53z"/>
<path style="fill:#316600; stroke:none;" d="M116 54L120 53C117.954 52.2489 117.404 52.3444 116 54z"/>
<path style="fill:#5c4e16; stroke:none;" d="M146 52C148.052 52.8742 149.747 52.9528 152 53C149.948 52.1257 148.253 52.0472 146 52z"/>
<path style="fill:#6b212a; stroke:none;" d="M160 52C161.223 53.1952 161.42 53.3164 163 54C162.02 52.2167 162.092 52.4057 160 52z"/>
<path style="fill:#403013; stroke:none;" d="M61 56C64.6954 55.533 68.2648 55.0309 72 55C68.4127 53.4807 63.393 52.5292 61 56z"/>
<path style="fill:#2f6400; stroke:none;" d="M82 53L80 54C81.482 54.7912 82.7964 54.8698 82 53z"/>
<path style="fill:#517600; stroke:none;" d="M73 69L70 69L70 82C78.7336 74.0691 77.3034 58.21 92.0039 55.912C96.9681 55.136 102.038 56.7869 107 57C103.745 51.996 99.2412 53.8008 94 53.9892C82.6329 54.3978 74.3105 55.938 73 69z"/>
<path style="fill:#461c0b; stroke:none;" d="M144 53C146.073 56.974 149.713 59.6473 151 64C152.324 60.5687 150.353 58.1893 149 55L156 55C152.402 53.4866 147.905 53.4936 144 53z"/>
<path style="fill:#532e12; stroke:none;" d="M147 53C148.769 53.7789 150.036 53.9124 152 54C150.231 53.2211 148.964 53.0876 147 53z"/>
<path style="fill:#3c1217; stroke:none;" d="M64 55C67.6296 56.5236 71.4143 56.0058 75 58L76 54L64 55z"/>
<path style="fill:#59051c; stroke:none;" d="M163 54C159.181 56.2082 153.413 55 149 55C151.332 63.1529 160.876 61.9926 167 65.7377C175.648 71.0261 182.215 80.1851 186.322 89.2855C190.352 98.2158 190.061 110.39 189.999 120C189.976 123.598 187.447 129.468 190 132C188.332 138.694 185.746 144.76 182.602 150.911C179.861 156.273 176.19 159.695 176 166C178.743 165.041 181.098 164.182 184 164C186.104 159.156 189.299 155.077 190.996 149.985C197.327 130.993 198.976 107.168 192.82 88C191.391 83.551 190.606 79.3188 187.985 75.3248C181.677 65.7117 171.946 60.6887 163 54z"/>
<path style="fill:#951433; stroke:none;" d="M164 54C165.573 56.6621 167.166 57.7721 170 59L167 54L164 54z"/>
<path style="fill:#427204; stroke:none;" d="M75 75C83.8956 67.2611 89.9815 59.8481 102 57C89.1594 51.2376 76.5515 62.3565 75 75z"/>
<path style="fill:#5d001c; stroke:none;" d="M57 56C51.9166 62.3625 43.9284 65.0995 39.4684 72.1698C30.6239 86.1905 29.6637 98.9452 28.9606 115C28.1166 134.275 29.681 152.264 43.1659 167.485C51.257 176.618 64.216 186.807 76.0394 190.494C93.8985 196.063 112.832 193.988 131 192.171C149.879 190.282 173.988 182.051 182 163C179.488 163.831 177.878 164.915 176 163C169.191 166.54 164.761 173.431 157.996 177.07C143.514 184.861 123.603 190.99 107 189.816C99.4226 189.28 93.1432 187.112 86 184.924C77.8143 182.416 70.1075 180.331 62.9614 175.327C56.0414 170.481 48.5742 164.181 44.115 156.91C41.3705 152.436 41.4319 145.862 36 144C35.7692 141.171 33.7803 136.008 35.777 133.603C37.7229 131.26 42.33 132.001 45 132L69 132L176 132L176 130L77 130L49 130C45.173 130 39.7254 130.961 36.1481 129.397C31.0493 127.166 33.9476 113.73 34.0039 109C34.2633 87.1903 47.7427 63.8996 71 62L74 56C67.9767 56.0007 63.6353 56.9996 58 59L59 56L57 56z"/>
<path style="fill:#420e12; stroke:none;" d="M58 59C60.1723 58.5363 61.9583 57.8945 64 57C61.1196 55.902 59.6498 56.4455 58 59z"/>
<path style="fill:#373505; stroke:none;" d="M75 56C67.7326 63.9658 66.5553 75.7316 69 86L72 86C75.4452 77.1369 82.9146 69.1676 90 63C86.6618 62.2452 84.3866 64.8802 82.0509 67.1597C76.8926 72.194 73.2535 77.1443 71 84C65.1869 73.1073 74.255 65.8314 77 56L75 56z"/>
<path style="fill:#2a3e00; stroke:none;" d="M94 59C98.4828 60.8628 102.428 58.5289 107 58.1042C112.4 57.6024 117.64 58.7699 123 59L123 57C113.281 57 103.354 56.0348 94 59z"/>
<path style="fill:#59200d; stroke:none;" d="M101 59C103.393 59.7408 105.493 59.3022 108 59C105.477 58.0098 103.642 58.3831 101 59z"/>
<path style="fill:#681d20; stroke:none;" d="M108 58C111.163 59.3274 114.586 58.9996 118 59C114.837 57.6726 111.414 58.0004 108 58z"/>
<path style="fill:#516117; stroke:none;" d="M123 58C124.769 58.7789 126.036 58.9124 128 59C126.231 58.2211 124.964 58.0876 123 58z"/>
<path style="fill:#810b2f; stroke:none;" d="M48 62C50.8367 62.6749 52.5222 61.5051 55 60C52.3104 59.5946 50.4442 60.7749 48 62z"/>
<path style="fill:#a1213a; stroke:none;" d="M104 59C108.217 60.7693 113.459 60 118 60C113.783 58.2307 108.541 59 104 59z"/>
<path style="fill:#4f2f0f; stroke:none;" d="M118 59C119.506 59.683 120.315 59.8259 122 60C120.494 59.317 119.685 59.1741 118 59z"/>
<path style="fill:#412700; stroke:none;" d="M122 59C127.113 62.7477 134.242 66.3792 140 69C137.923 61.9997 128.695 59.1574 122 59z"/>
<path style="fill:#82002a; stroke:none;" d="M170 59C171.98 60.8842 173.31 61.4693 176 62C174.051 60.4267 172.412 59.7091 170 59z"/>
<path style="fill:#3d620a; stroke:none;" d="M74 60C72.8486 62.9873 71.7395 65.8823 71 69C73.6929 66.8529 74.9262 63.3298 74 60z"/>
<path style="fill:#492707; stroke:none;" d="M88 65C91.6582 63.4996 95.1406 61.9167 99 61C94.3398 59.0493 90.2342 60.4909 88 65z"/>
<path style="fill:#bf1640; stroke:none;" d="M96 61C100.756 62.9773 106.882 61.0141 112 61C107.142 58.9615 101.065 60.0597 96 61z"/>
<path style="fill:#cb0742; stroke:none;" d="M96 62L96 64C101.464 63.9849 106.634 62.0457 112 62.0833C116.812 62.1171 120.501 64.6379 125 62C116.913 57.1559 104.899 61.8163 96 62z"/>
<path style="fill:#6a211a; stroke:none;" d="M122.667 60.3333C122.222 60.7778 123.278 60.7222 123.333 60.6667C123.778 60.2222 122.722 60.2778 122.667 60.3333z"/>
<path style="fill:#333300; stroke:none;" d="M149 60L150 64C150.751 61.9535 150.656 61.4043 149 60z"/>
<path style="fill:#6c291f; stroke:none;" d="M125 61C126.248 61.6848 126.548 61.7488 128 62C126.752 61.3152 126.452 61.2512 125 61z"/>
<path style="fill:#6f151d; stroke:none;" d="M152 64L157 62C154.387 60.502 152.646 60.9876 152 64z"/>
<path style="fill:#9d1a37; stroke:none;" d="M66 62C67.2484 62.6848 67.5484 62.7488 69 63L68 67C69.2549 65.2495 69.6137 64.1427 70 62L66 62z"/>
<path style="fill:#7a1f1f; stroke:none;" d="M70 62L70 64C71.6352 63.455 71.4549 63.6352 72 62L70 62z"/>
<path style="fill:#7f2025; stroke:none;" d="M93 62C94.2484 62.6848 94.5484 62.7488 96 63C94.7517 62.3152 94.4515 62.2512 93 62z"/>
<path style="fill:#b8073d; stroke:none;" d="M78 83C77.7618 80.9052 77.8159 79.1108 78 77C75.127 80.4641 73.0039 84.6125 72 89L68 89C66.1118 80.9649 64.9408 73.9842 68 66C65.9076 66.4057 65.9803 66.2166 65 68C58.6637 66.404 55.5863 69.6249 50.7145 73.1242C37.4307 82.6658 35.0017 98.3303 35 114C39.5339 113.853 40.6659 115.632 41 120C43.7845 120.058 46.2908 120.352 49 121L50 117L54 117L55 123C57.3281 121.817 59.5113 120.777 62 120L62 124L52 124L50 128C52.6816 127.268 54.7609 126.639 57 125L58 128C60.4966 127.573 62.6631 126.981 65 126L64 121L68 121L66 128L72 127C71.3072 124.052 69.7729 121.134 70.1667 118.02C70.7642 113.295 73.8826 114.403 75 118C76.1446 118.382 76.6781 118.405 77.6667 119.028C86.0041 124.282 74.8656 122.981 74 127L78 126C82.361 130.99 96.3824 127.486 102 126L101 120C104.589 121.121 104.995 122.44 104 126L110 126C108.836 121.108 109.378 116.92 110 112C113.043 114.314 114.224 117.713 117 120C115.662 122.66 114.621 125.091 114 128L119 128L120 124C120.957 125.517 121.387 126.339 122 128L163 128C166.929 128 175.15 129.544 178.397 126.972C181.716 124.343 180 114.786 180 111C180 101.018 179.409 92.7197 175.276 83.4637C172.226 76.6319 166.695 70.9757 164 64L154 62C155.979 69.9424 164 86.2447 152 90C151.13 84.014 146.541 75.8328 141.696 72.0941C137.28 68.6867 130.911 66.9054 128 62C121.976 62.8683 116.961 61.8343 111 62.044C107.559 62.165 104.397 63.4819 101 63.7801C97.1574 64.1174 92.9535 62.9014 89.4244 65.0139C83.1417 68.7746 80.7234 76.658 78 83z"/>
<path style="fill:#970e3d; stroke:none;" d="M62.6667 63.3333C62.2222 63.7778 63.2778 63.7222 63.3333 63.6667C63.7778 63.2222 62.7222 63.2778 62.6667 63.3333z"/>
<path style="fill:#c31147; stroke:none;" d="M49 74C55.1834 72.0188 57.7344 66.8693 65 68L69 63C60.4379 63.3742 53.9564 66.9879 49 74z"/>
<path style="fill:#a8223a; stroke:none;" d="M91 63C92.506 63.683 93.3148 63.8259 95 64C93.4939 63.317 92.6852 63.1741 91 63z"/>
<path style="fill:#862b2b; stroke:none;" d="M128 63C129.248 63.6848 129.548 63.7488 131 64C129.752 63.3152 129.452 63.2512 128 63z"/>
<path style="fill:#a30736; stroke:none;" d="M176 63C184.315 70.9905 191.565 79.8522 195.236 91.0147C198.476 100.868 199.613 115.762 197.66 125.985C197.18 128.499 195.76 130.673 195.262 133.17C193.213 143.447 190.397 154.555 184.24 163.41C178.603 171.517 171.276 176.529 163.075 181.655C158.326 184.623 154.56 187.667 149 189C152.412 190.532 156.27 190.84 160 191C163.243 185.234 170.785 179.898 174 188C169.774 188.015 166.722 187.716 165 192C168.528 193.194 173.238 195.112 176 192L179 193C180.224 188.91 180.034 184.637 183.765 181.803C186.68 179.589 190.722 179.952 193.427 177.347C196.587 174.306 195.727 169.452 199.059 166.403C201.381 164.277 205.947 164.433 207.397 161.566C208.512 159.36 207.862 156.378 208.129 154C208.745 148.518 211.114 144.819 204 144L204 138L200 146C194.989 139.191 200.115 132.033 201.701 124.91C202.607 120.845 202 116.15 202 112C206.007 115.924 204.079 119.953 205.313 124.91C205.964 127.526 208.049 129.41 208.687 132.039C209.593 135.774 209 140.175 209 144C212.233 136.295 209.627 125.141 209.209 117C208.94 111.76 210 106.303 210 101C209.315 102.248 209.251 102.548 209 104C207.847 100.135 207.507 96.013 207 92C204.374 92.8387 203.839 93.3735 203 96C197.493 94.2618 197.561 88.9168 195.675 84.1289C194.753 81.7884 192.89 80.1095 191.784 77.8711C188.096 70.4069 185.202 63.4279 176 63z"/>
<path style="fill:#92042e; stroke:none;" d="M56 65C57.8092 65.5743 58.0688 65.4653 60 65C58.3407 64.5935 57.7582 64.6914 56 65z"/>
<path style="fill:#a51439; stroke:none;" d="M128 64C130.259 65.4981 132.534 66.885 135 68C132.994 65.0601 131.543 64.2768 128 64z"/>
<path style="fill:#8a1d2d; stroke:none;" d="M133 64C134.825 67.8314 137.353 69.8852 141 72C139.112 68.4647 136.289 66.2563 133 64z"/>
<path style="fill:#2f4200; stroke:none;" d="M151 64C152.755 70.5644 153.999 76.1548 154 83L145 72C143.839 77.1115 150.273 83.2356 155 84C155 77.2681 155.233 70.6421 154 64L151 64z"/>
<path style="fill:#702015; stroke:none;" d="M154 64L154 67C154.696 65.4463 154.696 65.5537 154 64z"/>
<path style="fill:#980532; stroke:none;" d="M164 64C165.722 71.1785 171.638 76.8963 174.885 83.4637C179.33 92.4561 180 101.172 180 111C180 116.807 181.8 124.802 176 128C177.728 128.725 179.103 128.943 181.019 128.986C183.229 129.036 186.534 129.447 188.397 127.972C190.136 126.594 189.958 123.981 189.995 121.999C190.089 117.046 190.272 111.942 189.91 107C188.722 90.8 180.939 69.7567 164 64z"/>
<path style="fill:#850027; stroke:none;" d="M41 70C43.1357 68.4511 44.4511 67.1357 46 65C43.3134 66.3241 42.3241 67.3134 41 70z"/>
<path style="fill:#6a1913; stroke:none;" d="M69.3333 65.6667C69.2778 65.7222 69.2222 66.7778 69.6667 66.3333C69.7223 66.2777 69.7778 65.2223 69.3333 65.6667z"/>
<path style="fill:#8d1e21; stroke:none;" d="M84 70C86.1357 68.4511 87.4511 67.1357 89 65C86.3134 66.3241 85.3241 67.3134 84 70z"/>
<path style="fill:#a91140; stroke:none;" d="M44 78C48.6562 74.7201 52.7201 70.6562 56 66C50.6918 68.4382 46.3973 72.6658 44 78z"/>
<path style="fill:#a40636; stroke:none;" d="M185 66C187.353 72.4394 192.508 77.8791 195.319 84.1289C197.471 88.9124 196.913 94.9438 203 96C204.154 93.7511 204.751 93.1536 207 92L208 104C208.685 102.752 208.749 102.452 209 101C210.542 106.219 209.079 110.722 209.079 116C209.079 125.274 210 134.655 210 144C208.734 139.718 209.746 135.343 208.687 131.09C207.951 128.134 205.619 126.078 205.147 122.985C204.493 118.697 206.077 114.643 202 112C202 115.863 202.524 120.17 201.701 123.961C200.109 131.3 195.146 138.544 199 146C201.815 143.631 202.729 141.659 203 138C203.644 140.106 203.906 141.795 204 144C210.413 145.342 208.414 148.739 208.054 154C207.888 156.424 208.431 159.435 206.972 161.566C205.192 164.168 201.401 163.884 199.059 165.803C195.582 168.652 196.377 173.423 193.427 176.606C190.551 179.709 186.17 179.253 183.059 181.803C179.692 184.562 179.933 189.097 179 193C177.521 192.014 177.797 192 176 192C172.557 194.398 168.878 193.003 165 192C167.29 188.266 169.792 188.05 174 188C171.585 179.281 162.128 184.721 160 191C156.699 190.74 153.294 189.811 150 190.474C145.779 191.323 142.081 193.856 137.91 194.752C129.346 196.591 119.729 196.578 111 196.961C105.4 197.206 99.4522 197.358 94 195.91C88.3778 194.416 83.9335 191.276 78 191C82.4306 194.52 86.8778 195.609 91.9606 197.684C97.5916 199.984 102.196 203.062 108.285 204.545C111.444 205.314 114.785 204.901 118 205.285C129.333 206.641 140.609 207.221 152 205.572C158 204.703 163.594 202.695 169.285 200.709C172.585 199.557 174.775 199.485 176 196C183.138 195.103 188.23 190.85 193.451 186.339C195.448 184.613 198.113 183.868 199.972 181.984C205.728 176.151 208.979 166.618 211.367 159.001C216.134 143.786 218.657 125.258 215.741 109.17C214.651 103.16 211.309 99.1399 208.894 93.8302C203.637 82.2744 196.534 72.475 185 66z"/>
<path style="fill:#323606; stroke:none;" d="M140 67C140.627 69.9361 141.147 71.0127 144 72C142.942 69.7995 141.881 68.565 140 67z"/>
<path style="fill:#403100; stroke:none;" d="M155 67C155 73.4677 153.364 80.8452 154 87C157.167 82.364 157.151 72.127 155 67z"/>
<path style="fill:#7f262f; stroke:none;" d="M66 68L66 86C68.282 80.5617 66.6131 73.8253 68 68L66 68z"/>
<path style="fill:#6e1f16; stroke:none;" d="M156 68L156 84C157.812 79.6811 157.812 72.3189 156 68z"/>
<path style="fill:#5b250a; stroke:none;" d="M67 69C67 74.9451 64.3915 86.6788 72 88C70.5999 85.6597 68.7361 83.7745 68.2276 80.9815C67.4906 76.9332 68.6159 72.8509 67 69z"/>
<path style="fill:#3a5f05; stroke:none;" d="M69 70C69 74.7302 68.6527 79.4419 70 84C71.2667 82.457 71.4893 81.9522 72 80C70.7003 80.6498 71 80.1468 71 82C69.8302 78.0425 70.5804 73.7663 69 70z"/>
<path style="fill:#8e2131; stroke:none;" d="M80 74C81.7525 72.6697 82.6697 71.7525 84 70C81.7511 71.1535 81.1535 71.7511 80 74z"/>
<path style="fill:#7c0227; stroke:none;" d="M38 72C36.3149 75.2973 34.8652 78.3901 34 82C36.4837 79.2727 38.8763 75.7334 38 72z"/>
<path style="fill:#701d1a; stroke:none;" d="M143.333 72.6667C143.278 72.7222 143.222 73.7778 143.667 73.3333C143.722 73.2778 143.778 72.2222 143.333 72.6667z"/>
<path style="fill:#951b2c; stroke:none;" d="M79 74C78.0143 75.4785 78 75.2032 78 77C79.2892 75.5574 79.4009 75.7662 79 74z"/>
<path style="fill:#c60039; stroke:none;" d="M80 74C78.5974 77.0029 77.5102 79.7201 77 83C79.8777 80.4242 81.4758 77.8424 82 74L80 74z"/>
<path style="fill:#7f1928; stroke:none;" d="M157 75L157 84C159.147 80.8532 159.308 78.0622 157 75z"/>
<path style="fill:#66241f; stroke:none;" d="M76 76L76 79C77.0154 77.8607 77.3087 77.3884 78 76L76 76z"/>
<path style="fill:#67241e; stroke:none;" d="M146 76L147 80C147.393 78.076 147.146 77.6405 146 76z"/>
<path style="fill:#9c0a37; stroke:none;" d="M33 80C32.0143 81.4785 32 81.2032 32 83C33.2892 81.5574 33.4009 81.7663 33 80z"/>
<path style="fill:#900831; stroke:none;" d="M41 80L40 85C41.475 83.0648 41.791 82.3073 41 80z"/>
<path style="fill:#6b1a1f; stroke:none;" d="M74 80C73.1194 82.0214 72.5036 83.8541 72 86C73.9087 84.1203 74.9115 82.4576 76 80L74 80z"/>
<path style="fill:#6a2721; stroke:none;" d="M148 80C148.931 82.7407 149.819 84.104 152 86C150.995 83.4147 150.02 81.8962 148 80z"/>
<path style="fill:#b6083d; stroke:none;" d="M209 80C208.89 82.442 208.572 84.6229 208 87C206.814 85.8137 206.472 85.4162 206 84C205.377 86.6915 206.933 88.4662 207.759 91.0748C209.96 98.0221 214.982 103.47 215.871 111.039C217.239 122.681 217.58 138.468 214.544 149.83C212.12 158.901 207.679 167.418 204 176L205 177C207.208 175.462 207.815 173.356 209.722 171.587C211.366 170.063 213.595 170.244 215.428 169.147C219.268 166.849 218.094 162.006 215 160C215.777 155.893 216.754 151.986 218 148C220.004 149.425 221.794 150.92 224 152L224 144L220 144L220 112L224 112L224 104C221.794 105.08 220.004 106.575 218 108C216.754 104.014 215.777 100.107 215 96C218.025 95.4379 220.922 95.0636 224 95L224 80L209 80z"/>
<path style="fill:#7c0025; stroke:none;" d="M33 82C32.0143 83.4785 32 83.2032 32 85C33.7663 84.0214 33.9555 83.7782 33 82z"/>
<path style="fill:#501d17; stroke:none;" d="M152 84C152.611 87.2175 155.1 89.1807 156 85C154.805 85.5977 155.023 85.4661 154 87C153.309 85.6116 153.015 85.1393 152 84z"/>
<path style="fill:#9b1730; stroke:none;" d="M156 84L156 88C157.081 86.542 157.436 85.752 158 84L156 84z"/>
<path style="fill:#930330; stroke:none;" d="M38 86L38 90C38.9114 88.6234 39.4038 87.5601 40 86L38 86z"/>
<path style="fill:#8d0b31; stroke:none;" d="M192 86C193.114 90.4682 194.864 94.3274 195 99C196.882 94.5139 196.079 88.9015 192 86z"/>
<path style="fill:#8c1536; stroke:none;" d="M152 87C152.578 89.6975 153.261 89.7893 156 90C154.778 88.267 153.991 87.8486 152 87z"/>
<path style="fill:#85092d; stroke:none;" d="M30 88C29.3521 90.7092 29.0583 93.2155 29 96C30.4327 93.3042 31.0383 90.898 30 88z"/>
<path style="fill:#851321; stroke:none;" d="M68 88C69.506 88.683 70.3148 88.8259 72 89C70.4939 88.317 69.6852 88.1741 68 88z"/>
<path style="fill:#9b0632; stroke:none;" d="M105 95C106.769 95.7789 108.036 95.9124 110 96C108.231 95.2211 106.964 95.0876 105 95z"/>
<path style="fill:#960731; stroke:none;" d="M113 95C115.052 95.8743 116.747 95.9528 119 96C116.948 95.1258 115.253 95.0472 113 95z"/>
<path style="fill:#6d0021; stroke:none;" d="M28 96L27 128C30.8637 118.878 29.2239 105.834 30 96L28 96z"/>
<path style="fill:#8d0a30; stroke:none;" d="M35 96L34 112C35.854 107.623 36.8615 100.446 35 96z"/>
<path style="fill:#f6a7bb; stroke:none;" d="M106 96C107.248 96.6848 107.548 96.7488 109 97C107.752 96.3152 107.452 96.2512 106 96z"/>
<path style="fill:#d16685; stroke:none;" d="M109 96L110 97L109 96z"/>
<path style="fill:#980a35; stroke:none;" d="M110 96C111.223 97.1952 111.42 97.3164 113 98C112.02 96.2167 112.092 96.4057 110 96z"/>
<path style="fill:#be8793; stroke:none;" d="M113 96C115.052 96.8743 116.747 96.9528 119 97C116.948 96.1258 115.253 96.0472 113 96z"/>
<path style="fill:#ff7ea4; stroke:none;" d="M104 97L105 98L104 97z"/>
<path style="fill:#ffffff; stroke:none;" d="M105 97C106.506 97.683 107.315 97.8259 109 98C107.494 97.317 106.685 97.1741 105 97z"/>
<path style="fill:#ffadc6; stroke:none;" d="M109 97L109 100C110.015 98.8607 110.309 98.3884 111 97L109 97z"/>
<path style="fill:#ffffff; stroke:none;" d="M113 97L113 101L119 102C117.212 100.579 116.294 100.303 114 100L114 98L119 98C116.948 97.1258 115.253 97.0472 113 97z"/>
<path style="fill:#ffacc9; stroke:none;" d="M119 97L120 98L119 97z"/>
<path style="fill:#b51647; stroke:none;" d="M99 98L102 107C103.062 105.307 103.52 103.96 104 102L99 98z"/>
<path style="fill:#940e37; stroke:none;" d="M101 98C102.533 102.805 106.467 102.805 108 98C104.782 100.158 104.184 99.4783 101 98z"/>
<path style="fill:#cd6180; stroke:none;" d="M103.333 98.6667C103.278 98.7222 103.222 99.7778 103.667 99.3333C103.722 99.2778 103.778 98.2223 103.333 98.6667z"/>
<path style="fill:#ffe9ff; stroke:none;" d="M104.333 98.6667C104.278 98.7222 104.222 99.7778 104.667 99.3333C104.722 99.2778 104.778 98.2222 104.333 98.6667z"/>
<path style="fill:#ffa8c7; stroke:none;" d="M105.333 98.6667C105.278 98.7222 105.222 99.7778 105.667 99.3333C105.722 99.2777 105.778 98.2223 105.333 98.6667z"/>
<path style="fill:#9f274a; stroke:none;" d="M106.333 98.6667C106.278 98.7222 106.222 99.7778 106.667 99.3333C106.722 99.2777 106.778 98.2223 106.333 98.6667z"/>
<path style="fill:#972747; stroke:none;" d="M108.333 98.6667C108.278 98.7222 108.222 99.7778 108.667 99.3333C108.722 99.2778 108.778 98.2222 108.333 98.6667z"/>
<path style="fill:#ffedff; stroke:none;" d="M110 98C107.7 101.059 105.09 103.273 104 107L110 107L110 105L106 105C108.511 102.935 110.688 101.364 110 98z"/>
<path style="fill:#b57585; stroke:none;" d="M111 98L112 102C112.683 100.494 112.826 99.6852 113 98L111 98z"/>
<path style="fill:#ee83a1; stroke:none;" d="M114.333 98.6667C114.278 98.7222 114.222 99.7778 114.667 99.3333C114.722 99.2778 114.778 98.2222 114.333 98.6667z"/>
<path style="fill:#9d153e; stroke:none;" d="M126 98L126 100L128 100L128 98L126 98z"/>
<path style="fill:#860027; stroke:none;" d="M27 99L27 112C28.5909 108.209 28.5909 102.791 27 99z"/>
<path style="fill:#bf3b63; stroke:none;" d="M115 99C116.248 99.6848 116.548 99.7488 118 100C116.752 99.3152 116.452 99.2512 115 99z"/>
<path style="fill:#720021; stroke:none;" d="M196 99L196 131C198.599 124.806 197 115.686 197 109C197 105.581 197.328 102.166 196 99z"/>
<path style="fill:#af2d54; stroke:none;" d="M103.667 100.333C103.222 100.778 104.278 100.722 104.333 100.667C104.778 100.222 103.722 100.278 103.667 100.333z"/>
<path style="fill:#e06386; stroke:none;" d="M108 100L109 101L108 100z"/>
<path style="fill:#ffbfd4; stroke:none;" d="M118 100L119 101L118 100z"/>
<path style="fill:#cb5477; stroke:none;" d="M119 100L120 101L119 100z"/>
<path style="fill:#e7648a; stroke:none;" d="M107 101L108 102L107 101z"/>
<path style="fill:#ef7699; stroke:none;" d="M110 101L111 102L110 101z"/>
<path style="fill:#a2113e; stroke:none;" d="M109 105L117 104C113.746 101.631 111.126 101.353 109 105z"/>
<path style="fill:#f8d5db; stroke:none;" d="M113.667 101.333C113.222 101.778 114.278 101.722 114.333 101.667C114.778 101.222 113.722 101.278 113.667 101.333z"/>
<path style="fill:#bbb6b2; stroke:none;" d="M115.667 101.333C115.222 101.778 116.278 101.722 116.333 101.667C116.778 101.222 115.722 101.278 115.667 101.333z"/>
<path style="fill:#ffa0bb; stroke:none;" d="M119 101L120 102L119 101z"/>
<path style="fill:#cd597b; stroke:none;" d="M120 101L120 104C120.696 102.446 120.696 102.554 120 101z"/>
<path style="fill:#d05679; stroke:none;" d="M105 102L106 103L105 102z"/>
<path style="fill:#eb7195; stroke:none;" d="M109 102L110 103L109 102z"/>
<path style="fill:#63021e; stroke:none;" d="M115.667 102.333C115.222 102.778 116.278 102.722 116.333 102.667C116.778 102.222 115.722 102.278 115.667 102.333z"/>
<path style="fill:#b34262; stroke:none;" d="M117 102L117 105C117.696 103.446 117.696 103.554 117 102z"/>
<path style="fill:#ffdff9; stroke:none;" d="M118 102L117 106L113 104C115.672 108.061 118.791 105.98 120 102L118 102z"/>
<path style="fill:#c95375; stroke:none;" d="M104 103L105 104L104 103z"/>
<path style="fill:#b3566f; stroke:none;" d="M108 103L109 104L108 103z"/>
<path style="fill:#d66c8a; stroke:none;" d="M103 104L103 107C103.696 105.446 103.696 105.554 103 104z"/>
<path style="fill:#d29aa6; stroke:none;" d="M106 104L107 105L106 104z"/>
<path style="fill:#621126; stroke:none;" d="M107.667 104.333C107.222 104.778 108.278 104.722 108.333 104.667C108.778 104.222 107.722 104.278 107.667 104.333z"/>
<path style="fill:#e2698d; stroke:none;" d="M112 104C111.014 105.479 111 105.203 111 107C112.289 105.557 112.401 105.766 112 104z"/>
<path style="fill:#d56e8b; stroke:none;" d="M114 104L115 105L114 104z"/>
<path style="fill:#6e102a; stroke:none;" d="M115.667 104.333C115.222 104.778 116.278 104.722 116.333 104.667C116.778 104.222 115.722 104.278 115.667 104.333z"/>
<path style="fill:#8a0930; stroke:none;" d="M197 104L197 128C199.349 122.403 199.349 109.597 197 104z"/>
<path style="fill:#ffb2d4; stroke:none;" d="M110.333 105.667C110.278 105.722 110.222 106.778 110.667 106.333C110.722 106.278 110.778 105.222 110.333 105.667z"/>
<path style="fill:#ffb4ca; stroke:none;" d="M115.667 105.333C115.222 105.778 116.278 105.722 116.333 105.667C116.778 105.222 115.722 105.278 115.667 105.333z"/>
<path style="fill:#ff97b6; stroke:none;" d="M119 105L120 106L119 105z"/>
<path style="fill:#ff92b4; stroke:none;" d="M113 106L114 107L113 106z"/>
<path style="fill:#ff8caf; stroke:none;" d="M118 106L119 107L118 106z"/>
<path style="fill:#9a0d38; stroke:none;" d="M26 107L26 128C28.153 122.869 28.153 112.131 26 107z"/>
<path style="fill:#962645; stroke:none;" d="M113 107C114.769 107.779 116.036 107.912 118 108C116.231 107.221 114.964 107.088 113 107z"/>
<path style="fill:#cd0040; stroke:none;" d="M106 115C107.981 113.84 108.74 112.951 110 111C107.508 111.97 106.854 112.475 106 115z"/>
<path style="fill:#af1041; stroke:none;" d="M34 112C35.4247 118.066 33.9445 123.005 35 129L176 129C170.784 126.811 163.619 128 158 128L122 128L121 124C119.733 125.543 119.511 126.048 119 128L114 128L117 120C114.174 121.783 112.423 123.468 109 124L110 126C107.533 126 105.988 126.193 104 125L105 124C97.0972 125.938 85.6696 131.782 78 126C75.4943 126.045 74.7901 125.693 73 124C72.3152 125.248 72.2512 125.548 72 127L66 128L67 124C63.9765 125.477 61.2156 126.938 58 128C58 126.203 57.9857 126.479 57 125C54.7407 126.286 52.4353 127.102 50 128C50.5451 126.365 50.3648 126.545 52 126L52 124C50.8048 122.777 50.6836 122.58 50 121L55 122L54 117L50 117C49.262 119.113 49.1921 119.707 47 120L47 125C43.3731 123.739 40.8184 123.556 37 124C36.9995 119.422 37.5177 115.346 34 112z"/>
<path style="fill:#851738; stroke:none;" d="M110.667 112.333C110.222 112.778 111.278 112.722 111.333 112.667C111.778 112.222 110.722 112.278 110.667 112.333z"/>
<path style="fill:#cf4d73; stroke:none;" d="M37 113L37 120C38.0595 117.466 38.0595 115.534 37 113z"/>
<path style="fill:#ffc0d1; stroke:none;" d="M38.6667 113.333C38.2222 113.778 39.2778 113.722 39.3333 113.667C39.7778 113.222 38.7222 113.278 38.6667 113.333z"/>
<path style="fill:#d54873; stroke:none;" d="M71 113L72 114L71 113z"/>
<path style="fill:#ff8db1; stroke:none;" d="M72.6667 113.333C72.2222 113.778 73.2778 113.722 73.3333 113.667C73.7778 113.222 72.7222 113.278 72.6667 113.333z"/>
<path style="fill:#d290a0; stroke:none;" d="M110 113L110 124C111.44 120.569 110.67 117.075 113 114C111.752 113.315 111.452 113.251 110 113z"/>
<path style="fill:#ffffff; stroke:none;" d="M38 114L38 124L40 124L40 114L38 114z"/>
<path style="fill:#d04c72; stroke:none;" d="M40 114L40 121C41.0595 118.466 41.0595 116.534 40 114z"/>
<path style="fill:#ad214c; stroke:none;" d="M70 114C70.0004 117.509 69.2179 121.569 72 124C71.209 120.679 71.3087 117.112 70 114z"/>
<path style="fill:#e18ca4; stroke:none;" d="M71 114L71 123C72.2561 120.006 72.2561 116.994 71 114z"/>
<path style="fill:#ffffff; stroke:none;" d="M72 114L72 124C73.3457 120.793 73.3457 117.207 72 114z"/>
<path style="fill:#f1ced5; stroke:none;" d="M73 114L73 124C74.3457 120.793 74.3457 117.207 73 114z"/>
<path style="fill:#a5244b; stroke:none;" d="M74 114L74 124C75.3457 120.793 75.3457 117.207 74 114z"/>
<path style="fill:#d0003d; stroke:none;" d="M86 114L86 116L90 116L90 114L86 114z"/>
<path style="fill:#ffffff; stroke:none;" d="M111 114L111 124C112.346 120.793 112.346 117.207 111 114z"/>
<path style="fill:#ffb3ca; stroke:none;" d="M112 114L112 124C113.346 120.793 113.346 117.207 112 114z"/>
<path style="fill:#b84667; stroke:none;" d="M113 114L113 124C114.346 120.793 114.346 117.207 113 114z"/>
<path style="fill:#c50a45; stroke:none;" d="M34 115L34 122L36 122L36 115L34 115z"/>
<path style="fill:#a12248; stroke:none;" d="M109 115L109 124C110.256 121.006 110.256 117.994 109 115z"/>
<path style="fill:#9f113b; stroke:none;" d="M114 115L114 123C115.161 120.23 115.161 117.77 114 115z"/>
<path style="fill:#d70043; stroke:none;" d="M75 118L75 120L78 120L78 118L75 118z"/>
<path style="fill:#b44d6a; stroke:none;" d="M37 120L37 124C37.7102 122.241 37.7102 121.759 37 120z"/>
<path style="fill:#8e0c34; stroke:none;" d="M41 123C43.0417 122.105 44.8278 121.464 47 121C44.2378 119.409 41.7139 119.669 41 123z"/>
<path style="fill:#861031; stroke:none;" d="M59 120L61 124C61.683 122.494 61.8259 121.685 62 120L59 120z"/>
<path style="fill:#a60032; stroke:none;" d="M75 120C75.3067 122.123 75.3821 122.686 77 124C76.4038 122.44 75.9114 121.377 75 120z"/>
<path style="fill:#a51842; stroke:none;" d="M76 120C76.728 123.351 77.597 124.412 81 125C79.7516 124.315 79.4516 124.251 78 124L78 121L81 121C79.231 120.221 77.9641 120.088 76 120z"/>
<path style="fill:#832942; stroke:none;" d="M95 120C96.2484 120.685 96.5484 120.749 98 121C96.7517 120.315 96.4516 120.251 95 120z"/>
<path style="fill:#972647; stroke:none;" d="M101 120L101 124C102.351 122.598 103.254 121.824 105 121C103.494 120.317 102.685 120.174 101 120z"/>
<path style="fill:#ed809f; stroke:none;" d="M40 121L41 122L40 121z"/>
<path style="fill:#c85274; stroke:none;" d="M43 121L42 123L44 123C44 121.147 44.2997 121.65 43 121z"/>
<path style="fill:#ffe9ff; stroke:none;" d="M44 121L44 124L47 124L47 121L44 121z"/>
<path style="fill:#a93c5a; stroke:none;" d="M50 121L50 124C50.6961 122.446 50.6961 122.554 50 121z"/>
<path style="fill:#ffd8f3; stroke:none;" d="M51 121L51 124L53 124L53 121L51 121z"/>
<path style="fill:#ffa9c3; stroke:none;" d="M53 121L53 124C53.6961 122.446 53.6961 122.554 53 121z"/>
<path style="fill:#ff749d; stroke:none;" d="M57 121L57 124C57.6961 122.446 57.6961 122.554 57 121z"/>
<path style="fill:#ffedff; stroke:none;" d="M58 121L58 124L60 124L60 121L58 121z"/>
<path style="fill:#ffafc4; stroke:none;" d="M60 121L60 124C60.6961 122.446 60.6961 122.554 60 121z"/>
<path style="fill:#ffb7cf; stroke:none;" d="M64 121L64 124C64.6961 122.446 64.6961 122.554 64 121z"/>
<path style="fill:#ffdef6; stroke:none;" d="M65 121L65 124L67 124L67 121L65 121z"/>
<path style="fill:#c45675; stroke:none;" d="M67 121L67 124C67.6961 122.446 67.6961 122.554 67 121z"/>
<path style="fill:#e494a9; stroke:none;" d="M78 121L78 124C78.6961 122.446 78.6961 122.554 78 121z"/>
<path style="fill:#fffcff; stroke:none;" d="M79 121L79 124L81 124L81 121L79 121z"/>
<path style="fill:#f192ab; stroke:none;" d="M81 121L81 124C81.6961 122.446 81.6961 122.554 81 121z"/>
<path style="fill:#c0627b; stroke:none;" d="M86 121L86 124C86.6961 122.446 86.6961 122.554 86 121z"/>
<path style="fill:#ffdff2; stroke:none;" d="M87 121L87 124L89 124L89 121L87 121z"/>
<path style="fill:#cf738b; stroke:none;" d="M89 121L89 124C89.6961 122.446 89.6961 122.554 89 121z"/>
<path style="fill:#c80d47; stroke:none;" d="M93 121C91.7035 122.594 91.4646 123.018 91 125C92.9964 123.756 93.5576 123.308 93 121z"/>
<path style="fill:#e788a1; stroke:none;" d="M94 121L94 124C94.6961 122.446 94.6961 122.554 94 121z"/>
<path style="fill:#ffffff; stroke:none;" d="M95 121L95 124L97 124L97 121L95 121z"/>
<path style="fill:#d793a5; stroke:none;" d="M97 121L97 124C97.6961 122.446 97.6961 122.554 97 121z"/>
<path style="fill:#e68da5; stroke:none;" d="M102 121L102 124C102.696 122.446 102.696 122.554 102 121z"/>
<path style="fill:#fff7ff; stroke:none;" d="M103 121L103 124L105 124L105 121L103 121z"/>
<path style="fill:#f68eab; stroke:none;" d="M105 121L105 124C105.696 122.446 105.696 122.554 105 121z"/>
<path style="fill:#7b001f; stroke:none;" d="M33 122C33.0262 124.212 32.6268 127.415 34.6034 128.972C36.8835 130.769 41.3005 130 44 130L67 130L160 130C166.463 130 171.904 130.593 178.17 131.741C180.849 132.231 184.266 131.492 186.397 133.602C188.089 135.277 187.929 137.822 188 140C189.139 137.465 189.482 134.744 190 132C188.805 130.777 188.684 130.58 188 129L35 129C34.6521 126.428 34.2215 124.283 33 122z"/>
<path style="fill:#e54f7c; stroke:none;" d="M40.3333 122.667C40.2778 122.722 40.2222 123.778 40.6667 123.333C40.7223 123.278 40.7778 122.222 40.3333 122.667z"/>
<path style="fill:#91052f; stroke:none;" d="M53 125L57 124C56.4023 122.805 56.5339 123.023 55 122C53.9846 123.139 53.6913 123.612 53 125z"/>
<path style="fill:#d93a6b; stroke:none;" d="M56 122L57 123L56 122z"/>
<path style="fill:#c12b58; stroke:none;" d="M44 124C45.2483 124.685 45.5484 124.749 47 125C45.7517 124.315 45.4516 124.251 44 124z"/>
<path style="fill:#b0254f; stroke:none;" d="M95.6667 124.333C95.2222 124.778 96.2778 124.722 96.3333 124.667C96.7778 124.222 95.7222 124.278 95.6667 124.333z"/>
<path style="fill:#bd023d; stroke:none;" d="M40 125L40 128L43 128L43 125L40 125z"/>
<path style="fill:#840029; stroke:none;" d="M28 132L28 136C28.7102 134.241 28.7102 133.759 28 132z"/>
<path style="fill:#8a002a; stroke:none;" d="M36 144L38 144C37.6935 140.248 36.7591 136.68 36 133L187 133C183.041 131.339 178.26 132 174 132L151 132L68 132L44 132C41.5495 132.001 36.7421 131.201 35.1181 133.603C33.4386 136.088 35.6302 141.254 36 144z"/>
<path style="fill:#b4083e; stroke:none;" d="M36 133L38 144C44.0817 140.618 52.2312 142 59 142L104 142C104.163 138.767 105.727 135.815 102 135C109.717 132.719 118.982 134 127 134L176 134C171.785 132.231 166.536 133 162 133L134 133L36 133z"/>
<path style="fill:#9c0633; stroke:none;" d="M176 133L176 144C169.179 146.42 169.704 154.505 165.576 159.275C159.39 166.425 151.867 173.326 143.576 177.905C138.986 180.44 131.223 182.009 128 186C133.487 185.306 139.579 184.962 144.83 183.169C165.425 176.138 187.935 156.433 188 133L176 133z"/>
<path style="fill:#b8073e; stroke:none;" d="M102 134C103.248 134.685 103.548 134.749 105 135C104.428 137.377 104.11 139.558 104 142L65 142C58.1658 142 50.5837 141.054 44 143C49.7073 145.395 57.846 144 64 144C73.6451 144 83.358 143.664 92.9961 144.019C96.0526 144.131 99.1016 145.871 102.085 145.643C106.568 145.3 107.355 140.533 111.089 139.33C114.091 138.363 117.56 142.641 120 144C119.782 145.686 119.776 146.316 120 148C115.368 149.811 106.606 149.98 104 154C107.786 154.003 111.306 154.121 115 155L115 157C111.306 157.879 107.786 157.997 104 158L104 161C108.222 161 112.79 161.489 116.961 160.776C120.908 160.101 123.845 158.124 128 158L128 154L124 154L128 153L128 147L125 144L150 144C153.203 144 157.864 143.206 160.697 145.028C163.042 146.535 163.454 149.506 164 152C168.411 149.609 171.076 145.393 176 144L176 134L102 134z"/>
<path style="fill:#7d0328; stroke:none;" d="M194 136C193.499 138.686 193.117 141.27 193 144C194.62 141.295 195.157 138.966 194 136z"/>
<path style="fill:#980f38; stroke:none;" d="M106 146C108.441 143.914 109.704 141.942 111 139L113 139C114.651 142.934 116.142 145.996 120 148L120 144C113.541 138.855 109.336 136.349 106 146z"/>
<path style="fill:#b82a55; stroke:none;" d="M111.667 139.333C111.222 139.778 112.278 139.722 112.333 139.667C112.778 139.222 111.722 139.278 111.667 139.333z"/>
<path style="fill:#d97491; stroke:none;" d="M110 140L111 141L110 140z"/>
<path style="fill:#fffdfe; stroke:none;" d="M111 140L107 149L117 149C115.647 145.313 113.995 142.549 111 140z"/>
<path style="fill:#ff9db9; stroke:none;" d="M112 140L113 141L112 140z"/>
<path style="fill:#b14262; stroke:none;" d="M113 140L114 141L113 140z"/>
<path style="fill:#ffd1df; stroke:none;" d="M110.333 141.667C110.278 141.722 110.222 142.778 110.667 142.333C110.722 142.278 110.778 141.222 110.333 141.667z"/>
<path style="fill:#d58198; stroke:none;" d="M113 141L114 142L113 141z"/>
<path style="fill:#b8073d; stroke:none;" d="M39 142C41.3374 165.452 63.7831 177.669 83.9606 183.263C86.8548 184.066 89.0537 186.22 92.0394 186.772C122.843 192.473 164.668 177.018 173 144L164 152C163.677 149.673 163.522 146.565 161.436 145.028C158.86 143.13 154.005 144 151 144L125 144C125.902 145.923 126.076 145.999 128 147C127.754 149.121 127.769 150.874 128 153L124 153C125.506 153.683 126.315 153.826 128 154L128 158C123.449 158.051 120.3 160.053 115.985 160.776C112.116 161.425 107.914 161 104 161L104 158L108 158L109 154L104 154C105.614 150.82 106.194 148.561 106 145C100.39 145.887 94.7465 144 89 144L44 144L45 142L39 142z"/>
<path style="fill:#bf6a82; stroke:none;" d="M109 142L110 143L109 142z"/>
<path style="fill:#b1516d; stroke:none;" d="M114 142L115 143L114 142z"/>
<path style="fill:#e39eaf; stroke:none;" d="M109 143L110 144L109 143z"/>
<path style="fill:#e89db1; stroke:none;" d="M114 143L115 144L114 143z"/>
<path style="fill:#dc8ca2; stroke:none;" d="M108 144L109 145L108 144z"/>
<path style="fill:#f2b7c5; stroke:none;" d="M115.333 144.667C115.278 144.722 115.222 145.778 115.667 145.333C115.722 145.278 115.778 144.222 115.333 144.667z"/>
<path style="fill:#ae4a67; stroke:none;" d="M107 145L108 146L107 145z"/>
<path style="fill:#c75677; stroke:none;" d="M106 146L106 149C106.696 147.446 106.696 147.554 106 146z"/>
<path style="fill:#ffcee5; stroke:none;" d="M107.333 146.667C107.278 146.722 107.222 147.778 107.667 147.333C107.722 147.278 107.778 146.222 107.333 146.667z"/>
<path style="fill:#f392ad; stroke:none;" d="M116 146L117 147L116 146z"/>
<path style="fill:#f26690; stroke:none;" d="M117.333 147.667C117.278 147.722 117.222 148.778 117.667 148.333C117.722 148.278 117.778 147.222 117.333 147.667z"/>
<path style="fill:#d26e8a; stroke:none;" d="M107 149C110.163 150.327 113.586 150 117 150C113.837 148.673 110.414 149 107 149z"/>
<path style="fill:#950f38; stroke:none;" d="M106 150C109.163 151.327 112.586 151 116 151C112.837 149.673 109.414 150 106 150z"/>
<path style="fill:#90002d; stroke:none;" d="M34 154C34.6836 155.58 34.8048 155.777 36 157C35.3164 155.42 35.1952 155.223 34 154z"/>
<path style="fill:#a5113e; stroke:none;" d="M108 158C110.528 157.948 112.582 157.722 115 157L115 155C111.326 154.021 109.26 154.202 108 158z"/>
<path style="fill:#870025; stroke:none;" d="M36 157L37 160C37.6848 158.752 37.7488 158.452 38 157L36 157z"/>
<path style="fill:#830027; stroke:none;" d="M44 157C44.6836 158.58 44.8048 158.777 46 160C45.3164 158.42 45.1952 158.223 44 157z"/>
<path style="fill:#91012d; stroke:none;" d="M38 160C38.6836 161.58 38.8048 161.777 40 163C39.3164 161.42 39.1952 161.223 38 160z"/>
<path style="fill:#7e0329; stroke:none;" d="M185 160C184.014 161.479 184 161.203 184 163C185.766 162.021 185.955 161.778 185 160z"/>
<path style="fill:#960a34; stroke:none;" d="M40 164C40.6836 165.58 40.8048 165.777 42 167C41.3164 165.42 41.1952 165.223 40 164z"/>
<path style="fill:#7d072a; stroke:none;" d="M177 172C179.948 169.713 182.068 167.191 184 164C180.276 165.82 178.494 168.154 177 172z"/>
<path style="fill:#7b0026; stroke:none;" d="M45 170C46.2228 171.195 46.42 171.316 48 172C46.7772 170.805 46.58 170.684 45 170z"/>
<path style="fill:#800027; stroke:none;" d="M48 173C49.4498 174.608 50.0514 175.064 52 176C50.5502 174.392 49.9486 173.936 48 173z"/>
<path style="fill:#8e052f; stroke:none;" d="M61 174C62.2228 175.195 62.42 175.316 64 176C62.7772 174.805 62.58 174.684 61 174z"/>
<path style="fill:#840029; stroke:none;" d="M67 178C68.7505 179.255 69.8573 179.614 72 180C70.2495 178.745 69.1426 178.386 67 178z"/>
<path style="fill:#8b022c; stroke:none;" d="M58 180C59.9058 182.323 61.108 183.194 64 184C62.096 182.116 60.4663 181.047 58 180z"/>
<path style="fill:#8d032e; stroke:none;" d="M72 180C73.458 181.081 74.248 181.436 76 182C74.457 180.733 73.9522 180.511 72 180z"/>
<path style="fill:#990633; stroke:none;" d="M76 182C77.5061 182.683 78.3148 182.826 80 183C78.494 182.317 77.6852 182.174 76 182z"/>
<path style="fill:#a41a43; stroke:none;" d="M80 183C82.5882 184.378 85.0801 184.761 88 185C85.4401 183.058 83.1922 183.035 80 183z"/>
<path style="fill:#7f0328; stroke:none;" d="M152 187C155.04 187.811 157.235 186.387 160 185C157.035 184.303 154.758 185.78 152 187z"/>
<path style="fill:#770226; stroke:none;" d="M128 186C130.613 187.098 133.165 186.993 136 187L136 185C133.27 185.117 130.686 185.499 128 186z"/>
<path style="fill:#8b012c; stroke:none;" d="M68 186C69.543 187.267 70.0478 187.489 72 188C70.542 186.919 69.752 186.564 68 186z"/>
<path style="fill:#9e0736; stroke:none;" d="M120 186C122.613 187.098 125.165 186.993 128 187C125.387 185.902 122.836 186.007 120 186z"/>
<path style="fill:#6f001c; stroke:none;" d="M91 187C100.82 191.719 112.608 189.007 123 189C118.502 187.113 112.834 188.054 108 187.996C102.306 187.928 96.7203 187.001 91 187z"/>
<path style="fill:#970935; stroke:none;" d="M112 187C114.613 188.098 117.165 187.993 120 188C117.387 186.902 114.835 187.007 112 187z"/>
<path style="fill:#820026; stroke:none;" d="M120 187C122.613 188.098 125.165 187.993 128 188C125.387 186.902 122.836 187.007 120 187z"/>
<path style="fill:#800024; stroke:none;" d="M147 189C148.846 189.468 150.069 189.301 152 189C149.956 188.226 149.155 188.408 147 189z"/>
<path style="fill:#960e36; stroke:none;" d="M86 192C89.8859 196.977 98.1715 196.991 104 197C119.278 197.025 134.695 196.53 149 191C142.18 188.345 132.097 193.966 125 194.816C111.975 196.375 98.639 194.891 86 192z"/>
<path style="fill:#6f0020; stroke:none;" d="M96 194C99.6987 195.552 104.017 195 108 195C117.642 195 126.52 193.827 136 193C130.841 190.84 125.319 193.298 120 193.829C112.12 194.617 103.917 194 96 194z"/>
<path style="fill:#b54d6d; stroke:none;" d="M1 225L2 226L1 225z"/>
<path style="fill:#7a1233; stroke:none;" d="M2 225C2.96996 227.492 3.47493 228.146 6 229C4.66972 227.247 3.75253 226.33 2 225z"/>
<path style="fill:#ffb7ce; stroke:none;" d="M1 226L2 227L1 226z"/>
<path style="fill:#ac6077; stroke:none;" d="M2 227L3 228L2 227z"/>
<path style="fill:#e8527e; stroke:none;" d="M228 227L229 228L228 227z"/>
<path style="fill:#e4abba; stroke:none;" d="M2 228L3 229L2 228z"/>
<path style="fill:#6c0017; stroke:none;" d="M225 228C226.248 228.685 226.548 228.749 228 229C226.752 228.315 226.452 228.251 225 228z"/>
<path style="fill:#fff0ff; stroke:none;" d="M228 228L226 229C227.482 229.791 228.796 229.87 228 228z"/>
<path style="fill:#ffb0d2; stroke:none;" d="M4 229L5 230L4 229z"/>
<path style="fill:#e25a85; stroke:none;" d="M5 229L6 230L5 229z"/>
<path style="fill:#e87e99; stroke:none;" d="M225 229L226 230L225 229z"/>
</svg>
